<svg width="154" height="26" viewBox="0 0 154 26" fill="none" xmlns="http://www.w3.org/2000/svg">
<path fill-rule="evenodd" clip-rule="evenodd" d="M44.8522 24.224V18.88L46.7847 16.768L51.2619 24.224H56.7376L50.3922 13.792L56.7698 6.752H50.811L44.8522 13.056V0H40.0207V24.224H44.8522ZM64.3391 24.608C66.5293 24.608 68.2901 23.936 69.6215 22.592V24.224H74.1308V12.704C74.1308 11.4453 73.8141 10.3413 73.1806 9.39201C72.5472 8.44268 71.6614 7.70134 70.5233 7.16801C69.3853 6.63468 68.0754 6.36801 66.5937 6.36801C64.7256 6.36801 63.0882 6.79468 61.6817 7.64801C60.2753 8.50134 59.3143 9.65335 58.799 11.104L62.6641 12.928C62.9648 12.16 63.4425 11.5413 64.0975 11.072C64.7524 10.6027 65.5093 10.368 66.3683 10.368C67.2701 10.368 67.9841 10.592 68.5102 11.04C69.0363 11.488 69.2994 12.0427 69.2994 12.704V13.184L64.4357 13.952C62.3313 14.2933 60.7638 14.944 59.7331 15.904C58.7023 16.864 58.187 18.08 58.187 19.552C58.187 21.1307 58.7399 22.368 59.8458 23.264C60.9517 24.16 62.4494 24.608 64.3391 24.608ZM63.7915 20.64C64.1995 20.9387 64.7041 21.088 65.3054 21.088C66.5079 21.088 67.4742 20.7147 68.2043 19.968C68.9343 19.2213 69.2994 18.3147 69.2994 17.248V16.704L65.3054 17.408C64.6182 17.536 64.0921 17.7547 63.7271 18.064C63.362 18.3733 63.1795 18.816 63.1795 19.392C63.1795 19.9253 63.3835 20.3413 63.7915 20.64ZM82.5054 24.224V14.016C82.5054 13.0133 82.8061 12.208 83.4073 11.6C84.0086 10.992 84.7816 10.688 85.7264 10.688C86.6712 10.688 87.4443 10.992 88.0455 11.6C88.6468 12.208 88.9474 13.0133 88.9474 14.016V24.224H93.7789V12.992C93.7789 11.6693 93.4997 10.512 92.9414 9.52001C92.3831 8.52801 91.6047 7.75468 90.6062 7.20001C89.6077 6.64534 88.4428 6.36801 87.1114 6.36801C85.9948 6.36801 85.0071 6.57601 84.1481 6.99201C83.2892 7.40801 82.6343 8.04268 82.1833 8.89601V6.75201H77.674V24.224H82.5054ZM111.43 23.392C110.077 24.2027 108.542 24.608 106.824 24.608C105.75 24.608 104.746 24.432 103.812 24.08C102.878 23.728 102.1 23.2213 101.477 22.56V24.224H96.9676V0H101.799V8.224C103.045 6.98667 104.73 6.368 106.856 6.368C108.531 6.368 110.045 6.77333 111.398 7.584C112.75 8.39467 113.824 9.488 114.619 10.864C115.413 12.24 115.81 13.7813 115.81 15.488C115.81 17.1733 115.418 18.7093 114.635 20.096C113.851 21.4827 112.783 22.5813 111.43 23.392ZM106.244 20.288C104.934 20.288 103.866 19.8453 103.039 18.96C102.212 18.0747 101.799 16.9173 101.799 15.488C101.799 14.08 102.212 12.928 103.039 12.032C103.866 11.136 104.934 10.688 106.244 10.688C107.575 10.688 108.67 11.1413 109.529 12.048C110.388 12.9547 110.818 14.1013 110.818 15.488C110.818 16.896 110.388 18.048 109.529 18.944C108.67 19.84 107.575 20.288 106.244 20.288ZM129.371 22.592C128.039 23.936 126.279 24.608 124.088 24.608C122.199 24.608 120.701 24.16 119.595 23.264C118.489 22.368 117.936 21.1307 117.936 19.552C117.936 18.08 118.452 16.864 119.482 15.904C120.513 14.944 122.081 14.2933 124.185 13.952L129.049 13.184V12.704C129.049 12.0427 128.786 11.488 128.259 11.04C127.733 10.592 127.019 10.368 126.117 10.368C125.259 10.368 124.502 10.6027 123.847 11.072C123.192 11.5413 122.714 12.16 122.413 12.928L118.548 11.104C119.064 9.65335 120.024 8.50134 121.431 7.64801C122.837 6.79468 124.475 6.36801 126.343 6.36801C127.825 6.36801 129.134 6.63468 130.273 7.16801C131.411 7.70134 132.296 8.44268 132.93 9.39201C133.563 10.3413 133.88 11.4453 133.88 12.704V24.224H129.371V22.592ZM125.055 21.088C124.453 21.088 123.949 20.9387 123.541 20.64C123.133 20.3413 122.929 19.9253 122.929 19.392C122.929 18.816 123.111 18.3733 123.476 18.064C123.841 17.7547 124.367 17.536 125.055 17.408L129.049 16.704V17.248C129.049 18.3147 128.683 19.2213 127.953 19.968C127.223 20.7147 126.257 21.088 125.055 21.088ZM142.255 14.016V24.224H137.423V6.75201H141.932V8.89601C142.383 8.04268 143.038 7.40801 143.897 6.99201C144.756 6.57601 145.744 6.36801 146.861 6.36801C148.192 6.36801 149.357 6.64534 150.355 7.20001C151.354 7.75468 152.132 8.52801 152.691 9.52001C153.249 10.512 153.528 11.6693 153.528 12.992V24.224H148.697V14.016C148.697 13.0133 148.396 12.208 147.795 11.6C147.193 10.992 146.42 10.688 145.476 10.688C144.531 10.688 143.758 10.992 143.156 11.6C142.555 12.208 142.255 13.0133 142.255 14.016Z" fill="#000112"/>
<rect y="0.223999" width="6.03934" height="25" rx="2" fill="#635FC7"/>
<rect opacity="0.75" x="9.05902" y="0.223999" width="6.03934" height="25" rx="2" fill="#635FC7"/>
<rect opacity="0.5" x="18.118" y="0.223999" width="6.03934" height="25" rx="2" fill="#635FC7"/>
</svg>
