<svg width="15" height="15" viewBox="0 0 15 15" fill="none" xmlns="http://www.w3.org/2000/svg">
<path fill-rule="evenodd" clip-rule="evenodd" d="M14.2417 9.70085C14.6492 9.52085 15.135 9.86585 14.965 10.2708C13.805 13.0458 11.0217 15 7.7717 15C3.47917 15 0 11.5908 0 7.38505C0 3.84422 2.46667 0.867549 5.8075 0.0150492C6.24083 -0.0949508 6.525 0.421719 6.28833 0.795049C5.66988 1.76919 5.34206 2.89951 5.34333 4.05339C5.34333 7.47089 8.17 10.2408 11.6575 10.2408C12.547 10.2423 13.4271 10.0584 14.2417 9.70085ZM9.835 0.759209C9.5408 0.317549 10.0675 -0.209121 10.5092 0.0858792L11.2967 0.610879C11.616 0.823849 11.9912 0.937509 12.375 0.937509C12.7588 0.937509 13.134 0.823849 13.4533 0.610879L14.24 0.0858792C14.6825 -0.209121 15.2092 0.317549 14.9142 0.759209L14.3892 1.54671C14.1762 1.86602 14.0625 2.24123 14.0625 2.62505C14.0625 3.00886 14.1762 3.38408 14.3892 3.70338L14.9142 4.49088C15.2092 4.93255 14.6825 5.45921 14.2408 5.16421L13.4533 4.63921C13.134 4.42624 12.7588 4.31259 12.375 4.31259C11.9912 4.31259 11.616 4.42624 11.2967 4.63921L10.51 5.16421C10.0683 5.45921 9.5408 4.93255 9.835 4.49088L10.36 3.70338C10.573 3.38408 10.6866 3.00886 10.6866 2.62505C10.6866 2.24123 10.573 1.86602 10.36 1.54671L9.835 0.759209Z" fill="#828FA3"/>
</svg>
